<svg xmlns="http://www.w3.org/2000/svg" version="1.1" xmlns:xlink="http://www.w3.org/1999/xlink" xmlns:svgjs="http://svgjs.dev/svgjs" width="1000" height="1000" viewBox="0 0 1000 1000"><rect width="1000" height="1000" fill="#000000"></rect><g transform="matrix(0.7,0,0,0.7,150,281.25)"><svg viewBox="0 0 576 360" data-background-color="#ffffff" preserveAspectRatio="xMidYMid meet" height="625" width="1000" xmlns="http://www.w3.org/2000/svg" xmlns:xlink="http://www.w3.org/1999/xlink"><g id="tight-bounds" transform="matrix(1,0,0,1,0,0)"><svg viewBox="0 0 576 360" height="360" width="576"><g><svg></svg></g><g><svg viewBox="0 0 576 360" height="360" width="576"><g><path d="M132.115 90l155.885-90 155.885 90v180l-155.885 90-155.885-90zM135.35 268.133l152.65 88.132 152.65-88.132v-176.266l-152.65-88.132-152.65 88.132z" fill="#ffffff" fill-rule="nonzero" stroke="none" stroke-width="1" stroke-linecap="butt" stroke-linejoin="miter" stroke-miterlimit="10" stroke-dasharray="" stroke-dashoffset="0" font-family="none" font-weight="none" font-size="none" text-anchor="none" style="mix-blend-mode: normal" data-fill-palette-color="tertiary"></path></g><g transform="matrix(1,0,0,1,172.8,116.63912234464455)"><svg viewBox="0 0 230.4 126.7217553107109" height="126.7217553107109" width="230.4"><g><svg viewBox="0 0 230.4 126.7217553107109" height="126.7217553107109" width="230.4"><g transform="matrix(1,0,0,1,0,90.8574899078673)"><svg viewBox="0 0 230.4 35.86426540284361" height="35.86426540284361" width="230.4"><g id="textblocktransform"><svg viewBox="0 0 230.4 35.86426540284361" height="35.86426540284361" width="230.4" id="textblock"><g><svg viewBox="0 0 230.4 35.86426540284361" height="35.86426540284361" width="230.4"><g transform="matrix(1,0,0,1,0,0)"><svg width="230.4" viewBox="0.95 -36.55 237.36 36.949999999999996" height="35.86426540284361" data-palette-color="#2d2d2d"><path d="M18.2-36.15L18.2-12.85Q18.2-9.8 17.45-7.35 16.7-4.9 15.21-3.18 13.73-1.45 11.5-0.53 9.28 0.4 6.33 0.4L6.33 0.4Q4.98 0.4 3.68 0.24 2.38 0.08 0.95-0.28L0.95-0.28 1.3-4.28Q1.35-4.83 1.71-5.16 2.08-5.5 2.78-5.5L2.78-5.5Q3.2-5.5 3.89-5.33 4.58-5.15 5.63-5.15L5.63-5.15Q7.05-5.15 8.15-5.56 9.25-5.98 9.99-6.88 10.73-7.78 11.1-9.21 11.48-10.65 11.48-12.7L11.48-12.7 11.48-36.15 18.2-36.15ZM60.17-18.07L60.17-18.07Q60.17-14.1 58.85-10.71 57.52-7.33 55.12-4.85 52.72-2.38 49.35-0.99 45.97 0.4 41.87 0.4L41.87 0.4Q37.77 0.4 34.39-0.99 31-2.38 28.59-4.85 26.17-7.33 24.85-10.71 23.52-14.1 23.52-18.07L23.52-18.07Q23.52-22.05 24.85-25.44 26.17-28.83 28.59-31.3 31-33.77 34.39-35.16 37.77-36.55 41.87-36.55L41.87-36.55Q45.97-36.55 49.35-35.15 52.72-33.75 55.12-31.29 57.52-28.83 58.85-25.44 60.17-22.05 60.17-18.07ZM53.27-18.07L53.27-18.07Q53.27-21.05 52.48-23.41 51.7-25.78 50.22-27.43 48.75-29.08 46.64-29.95 44.52-30.83 41.87-30.83L41.87-30.83Q39.22-30.83 37.1-29.95 34.97-29.08 33.48-27.43 32-25.78 31.2-23.41 30.4-21.05 30.4-18.07L30.4-18.07Q30.4-15.1 31.2-12.74 32-10.38 33.48-8.74 34.97-7.1 37.1-6.23 39.22-5.35 41.87-5.35L41.87-5.35Q44.52-5.35 46.64-6.23 48.75-7.1 50.22-8.74 51.7-10.38 52.48-12.74 53.27-15.1 53.27-18.07ZM79.12 0L65.47 0 65.47-36.15 77.95-36.15Q81.5-36.15 84.01-35.48 86.52-34.8 88.13-33.55 89.75-32.3 90.5-30.53 91.25-28.75 91.25-26.53L91.25-26.53Q91.25-25.25 90.87-24.09 90.5-22.93 89.71-21.91 88.92-20.9 87.71-20.08 86.5-19.25 84.82-18.68L84.82-18.68Q92.27-17 92.27-10.63L92.27-10.63Q92.27-8.33 91.4-6.38 90.52-4.42 88.85-3.01 87.17-1.6 84.72-0.8 82.27 0 79.12 0L79.12 0ZM79-15.85L72.2-15.85 72.2-5.25 79.02-5.25Q80.9-5.25 82.16-5.7 83.42-6.15 84.18-6.9 84.95-7.65 85.28-8.65 85.62-9.65 85.62-10.78L85.62-10.78Q85.62-11.95 85.25-12.89 84.87-13.83 84.07-14.49 83.27-15.15 82.02-15.5 80.77-15.85 79-15.85L79-15.85ZM72.2-30.95L72.2-20.5 77.57-20.5Q81-20.5 82.77-21.75 84.55-23 84.55-25.73L84.55-25.73Q84.55-28.55 82.95-29.75 81.35-30.95 77.95-30.95L77.95-30.95 72.2-30.95ZM98.04-36.15L120.84-36.15 120.84-30.8 104.82-30.8 104.82-20.1 118.34-20.1 118.34-14.73 104.82-14.73 104.82 0 98.04 0 98.04-36.15ZM132.84-36.15L132.84-5.55 147.32-5.55 147.32 0 126.12 0 126.12-36.15 132.84-36.15ZM184.64-18.07L184.64-18.07Q184.64-14.1 183.31-10.71 181.99-7.33 179.59-4.85 177.19-2.38 173.81-0.99 170.44 0.4 166.34 0.4L166.34 0.4Q162.24 0.4 158.85-0.99 155.46-2.38 153.05-4.85 150.64-7.33 149.31-10.71 147.99-14.1 147.99-18.07L147.99-18.07Q147.99-22.05 149.31-25.44 150.64-28.83 153.05-31.3 155.46-33.77 158.85-35.16 162.24-36.55 166.34-36.55L166.34-36.55Q170.44-36.55 173.81-35.15 177.19-33.75 179.59-31.29 181.99-28.83 183.31-25.44 184.64-22.05 184.64-18.07ZM177.74-18.07L177.74-18.07Q177.74-21.05 176.95-23.41 176.16-25.78 174.69-27.43 173.21-29.08 171.1-29.95 168.99-30.83 166.34-30.83L166.34-30.83Q163.69-30.83 161.56-29.95 159.44-29.08 157.95-27.43 156.46-25.78 155.66-23.41 154.86-21.05 154.86-18.07L154.86-18.07Q154.86-15.1 155.66-12.74 156.46-10.38 157.95-8.74 159.44-7.1 161.56-6.23 163.69-5.35 166.34-5.35L166.34-5.35Q168.99-5.35 171.1-6.23 173.21-7.1 174.69-8.74 176.16-10.38 176.95-12.74 177.74-15.1 177.74-18.07ZM197.81 0L186.59-36.15 192.24-36.15Q193.11-36.15 193.7-35.74 194.29-35.33 194.49-34.63L194.49-34.63 200.64-13Q200.86-12.2 201.05-11.26 201.24-10.33 201.41-9.28L201.41-9.28Q201.61-10.33 201.85-11.26 202.09-12.2 202.36-13L202.36-13 209.46-34.63Q209.66-35.2 210.25-35.68 210.84-36.15 211.69-36.15L211.69-36.15 213.66-36.15Q214.54-36.15 215.11-35.74 215.69-35.33 215.91-34.63L215.91-34.63 222.96-13Q223.51-11.4 223.91-9.45L223.91-9.45Q224.09-10.43 224.27-11.33 224.46-12.23 224.66-13L224.66-13 230.81-34.63Q230.99-35.25 231.59-35.7 232.19-36.15 233.04-36.15L233.04-36.15 238.31-36.15 227.09 0 221.01 0 213.11-24.7Q212.96-25.18 212.8-25.73 212.64-26.28 212.49-26.9L212.49-26.9Q212.34-26.28 212.17-25.73 212.01-25.18 211.86-24.7L211.86-24.7 203.89 0 197.81 0Z" opacity="1" transform="matrix(1,0,0,1,0,0)" fill="#ffffff" class="wordmark-text-0" data-fill-palette-color="primary" id="text-0"></path></svg></g></svg></g></svg></g></svg></g><g transform="matrix(1,0,0,1,74.00460120568721,0)"><svg viewBox="0 0 82.3907975886256 82.3907975886256" height="82.3907975886256" width="82.3907975886256"><g><svg></svg></g><g id="icon-0"><svg viewBox="0 0 82.3907975886256 82.3907975886256" height="82.3907975886256" width="82.3907975886256"><g><rect width="74.91459558521328" height="74.91459558521328" x="3.7381010017061627" y="3.7381010017061627" fill="#ffffff" data-fill-palette-color="accent"></rect><rect width="74.91459558521328" height="74.91459558521328" x="1.3322676295501878e-15" y="7.4762020034123235" fill="#ffffff" opacity="0.5" data-fill-palette-color="accent"></rect></g><g transform="matrix(1,0,0,1,10.680288576303319,17.51988224585717)"><svg viewBox="0 0 61.030220436018965 47.351033096911266" height="47.351033096911266" width="61.030220436018965"><g><svg xmlns="http://www.w3.org/2000/svg" xmlns:xlink="http://www.w3.org/1999/xlink" version="1.1" x="0" y="0" viewBox="23 27.999999999999996 58 45" enable-background="new 0 0 100 100" xml:space="preserve" height="47.351033096911266" width="61.030220436018965" class="icon-z$-0" data-fill-palette-color="background" id="z$-0"><path d="M77 37H65v-4.7c0-3-1.5-4.3-4.6-4.3H43.8c-3 0-4.8 1.4-4.8 4.3V37H26.7c-2.6 0-3.7 1.2-3.7 3.7V69c0 2.5 1.4 4 4 4h50c2.6 0 4-0.8 4-3.3v-29C81 38.2 79.6 37 77 37zM42 32.3c0-1.3 0.5-1.3 1.8-1.3h16.6c1.3 0 1.6 0.1 1.6 1.3V37H42V32.3zM78 67.9c0 1.1 0.1 2.1-1 2.1H27.8c-1.1 0-1.8-1-1.8-2.1V41.7c0-1.1 0.5-1.7 1.7-1.7H77c1.1 0 1 0.6 1 1.7V67.9z" fill="#ffffff" data-fill-palette-color="background"></path></svg></g></svg></g></svg></g></svg></g><g></g></svg></g></svg></g></svg></g><defs></defs></svg><rect width="576" height="360" fill="none" stroke="none" visibility="hidden"></rect></g></svg></g></svg>